<svg aria-hidden="true" style="position: absolute; width: 0; height: 0; overflow: hidden;" version="1.1" xmlns="http://www.w3.org/2000/svg" xmlns:xlink="http://www.w3.org/1999/xlink">
<defs>
<symbol id="icon-logo" viewBox="0 0 115 32">
<path fill="#fff" style="fill: var(--color1, #fff)" d="M8.905 15.155c0-0.574-0.203-1.013-0.609-1.318-0.406-0.311-1.136-0.635-2.191-0.973-1.055-0.345-1.891-0.683-2.505-1.014-1.677-0.905-2.516-2.125-2.516-3.659 0-0.797 0.223-1.507 0.67-2.128 0.453-0.629 1.098-1.118 1.937-1.47 0.845-0.351 1.792-0.527 2.84-0.527 1.055 0 1.995 0.193 2.82 0.577 0.825 0.378 1.464 0.916 1.917 1.612 0.46 0.696 0.69 1.486 0.69 2.372h-3.043c0-0.676-0.213-1.2-0.639-1.571-0.426-0.378-1.024-0.568-1.795-0.568-0.744 0-1.322 0.159-1.734 0.477-0.413 0.311-0.619 0.723-0.619 1.236 0 0.48 0.24 0.882 0.72 1.206 0.487 0.324 1.2 0.629 2.14 0.912 1.732 0.521 2.993 1.165 3.784 1.936s1.187 1.73 1.187 2.879c0 1.277-0.484 2.28-1.451 3.010-0.967 0.723-2.269 1.084-3.905 1.084-1.136 0-2.171-0.206-3.104-0.618-0.933-0.419-1.646-0.99-2.14-1.713-0.488-0.723-0.732-1.56-0.732-2.514h3.053c0 1.629 0.974 2.443 2.921 2.443 0.723 0 1.288-0.145 1.694-0.435 0.405-0.297 0.609-0.71 0.609-1.237zM37.763 16.584h6.462v2.443h-9.505v-14.756h3.043v12.313zM54.52 15.986h-5.335l-1.014 3.041h-3.236l5.498-14.756h2.82l5.528 14.756h-3.236l-1.025-3.041zM50.007 13.523h3.692l-1.856-5.523-1.836 5.523zM65.627 13.625h-2.424v5.402h-3.043v-14.758h5.488c1.744 0 3.090 0.389 4.037 1.166s1.42 1.875 1.42 3.294c0 1.006-0.22 1.848-0.659 2.524-0.432 0.669-1.092 1.203-1.978 1.601l3.195 6.030v0.142h-3.266l-2.77-5.402zM63.203 11.162h2.455c0.764 0 1.356-0.193 1.775-0.578 0.419-0.392 0.629-0.929 0.629-1.611 0-0.696-0.2-1.244-0.599-1.642-0.392-0.398-0.997-0.598-1.815-0.598h-2.445v4.429zM87.486 12.632h-5.842v3.953h6.857v2.442h-9.9v-14.756h9.88v2.463h-6.837v3.517h5.842v2.382zM95.571 9.358l2.769-5.087h3.499l-4.3 7.317 4.412 7.439h-3.54l-2.84-5.169-2.84 5.169h-3.54l4.413-7.439-4.301-7.317h3.499l2.77 5.087zM112.378 12.632h-5.843v3.953h6.857v2.442h-9.901v-14.756h9.879v2.463h-6.836v3.517h5.843v2.382zM23.369 6.391c-3.455 0-6.266 2.808-6.266 6.261s2.811 6.261 6.266 6.261 6.267-2.809 6.267-6.262c0-3.452-2.811-6.261-6.267-6.261zM23.369 17.811c-2.847 0-5.163-2.314-5.163-5.158s2.315-5.159 5.163-5.159 5.163 2.314 5.163 5.159c0 2.844-2.316 5.159-5.163 5.159zM23.37 2.275c0 0 0 0 0 0-0.305 0-0.551 0.247-0.552 0.551v2.171c0 0.305 0.247 0.552 0.552 0.552s0.552-0.247 0.552-0.552v0-2.171c-0.001-0.304-0.248-0.551-0.552-0.551 0 0 0 0 0 0v0zM30.714 5.314c-0.1-0.1-0.238-0.161-0.39-0.161s-0.29 0.062-0.39 0.161v0l-1.537 1.535c-0.1 0.1-0.161 0.237-0.161 0.39 0 0.305 0.247 0.551 0.552 0.551 0.152 0 0.29-0.062 0.39-0.162v0l1.536-1.535c0.1-0.1 0.161-0.237 0.161-0.39s-0.062-0.29-0.161-0.39v0zM18.342 17.676c-0.1-0.1-0.238-0.162-0.39-0.162s-0.29 0.062-0.39 0.162l-1.536 1.535c-0.1 0.1-0.162 0.238-0.162 0.39 0 0.305 0.247 0.552 0.552 0.552 0.152 0 0.29-0.062 0.39-0.162v0l1.536-1.535c0.1-0.1 0.162-0.238 0.162-0.39s-0.062-0.29-0.162-0.39v0zM33.205 12.101h-2.173c-0.006-0-0.012-0-0.019-0-0.305 0-0.552 0.247-0.552 0.552s0.247 0.552 0.552 0.552c0.007 0 0.013-0 0.020-0l-0.001 0h2.172c0.006 0 0.012 0 0.019 0 0.305 0 0.552-0.247 0.552-0.552s-0.247-0.552-0.552-0.552c-0.007 0-0.013 0-0.020 0l0.001-0zM15.708 12.101h-2.172c-0.006-0-0.012-0-0.019-0-0.305 0-0.552 0.247-0.552 0.552s0.247 0.552 0.552 0.552c0.007 0 0.013-0 0.020-0l-0.001 0h2.172c0.006 0 0.012 0 0.019 0 0.305 0 0.552-0.247 0.552-0.552s-0.247-0.552-0.552-0.552c-0.007 0-0.013 0-0.020 0l0.001-0zM18.342 6.849l-1.537-1.535c-0.097-0.087-0.226-0.14-0.368-0.14-0.305 0-0.552 0.247-0.552 0.552 0 0.141 0.053 0.27 0.14 0.368l-0-0.001 1.536 1.535c0.1 0.1 0.238 0.162 0.39 0.162s0.291-0.062 0.39-0.162l0-0c0.1-0.1 0.162-0.238 0.162-0.39s-0.062-0.29-0.162-0.39v0zM30.714 19.211l-1.536-1.535c-0.098-0.091-0.23-0.146-0.375-0.146-0.305 0-0.552 0.247-0.552 0.552 0 0.145 0.056 0.276 0.147 0.375l-0-0 1.537 1.535c0.1 0.1 0.238 0.162 0.39 0.162s0.29-0.062 0.39-0.162l0-0c0.1-0.1 0.161-0.237 0.161-0.39s-0.062-0.29-0.161-0.39v0zM37.828 30.588l0.223-1.625 3.053 0.419c0.027 0.005 0.057 0.007 0.089 0.007 0.305 0 0.552-0.247 0.552-0.552 0-0.283-0.213-0.516-0.487-0.548l-0.003-0-3.053-0.419 0.378-2.753 3.053 0.419c0.031 0.006 0.068 0.010 0.105 0.010 0.305 0 0.552-0.247 0.552-0.552 0-0.289-0.222-0.526-0.504-0.55l-0.002-0-3.053-0.419 0.070-0.508 0.154-1.116c0.003-0.022 0.005-0.048 0.005-0.075 0-0.305-0.247-0.552-0.552-0.552-0.278 0-0.509 0.206-0.547 0.474l-0 0.003-0.078 0.57-2.7-0.37c-0.144-0.021-0.311-0.033-0.481-0.033-1.6 0-2.954 1.055-3.405 2.507l-0.007 0.025-4.86-0.666c-1.429-0.202-2.516-1.417-2.516-2.886 0-0.138 0.010-0.274 0.028-0.407l-0.002 0.015 0.176-1.285c0.002-0.017 0.003-0.038 0.003-0.058 0-0.305-0.247-0.552-0.552-0.552-0.272 0-0.499 0.197-0.543 0.457l-0 0.003-0.176 1.284c-0.301 2.192 1.239 4.22 3.432 4.52l4.86 0.666c0.038 1.764 1.353 3.21 3.056 3.452l0.019 0.002 2.7 0.37-0.078 0.57c-0.003 0.023-0.005 0.049-0.005 0.075 0 0.305 0.247 0.552 0.552 0.552 0.278 0 0.509-0.206 0.547-0.474l0-0.003zM34.264 28.406c-1.205-0.17-2.122-1.195-2.122-2.434 0-0.116 0.008-0.231 0.024-0.343l-0.001 0.013c0.172-1.204 1.196-2.119 2.434-2.119 0.117 0 0.232 0.008 0.345 0.024l-0.013-0.002 2.7 0.37-0.668 4.861-2.699-0.37zM65.47 1.967c0.008 0 0.017 0.001 0.026 0.001 0.305 0 0.552-0.247 0.552-0.552s-0.247-0.552-0.552-0.552c-0.009 0-0.018 0-0.028 0.001l0.001-0c-0.293 0.014-0.526 0.256-0.526 0.552s0.232 0.537 0.525 0.551l0.001 0zM62.873 1.967c0.008 0 0.017 0.001 0.027 0.001 0.305 0 0.552-0.247 0.552-0.552s-0.247-0.552-0.552-0.552c-0.009 0-0.018 0-0.027 0.001l0.001-0c-0.294 0.014-0.526 0.256-0.526 0.552s0.232 0.537 0.524 0.551l0.001 0z"></path>
</symbol>
<symbol id="icon-hero_btn" viewBox="0 0 32 32">
<path d="M22.638 16.226c0.058-0.058 0.094-0.138 0.094-0.226s-0.036-0.168-0.094-0.226l-2.036-2.036c-0.058-0.056-0.136-0.090-0.222-0.090-0.177 0-0.32 0.143-0.32 0.32 0 0.086 0.034 0.165 0.090 0.222l1.81 1.81-1.81 1.81c-0.060 0.058-0.098 0.14-0.098 0.23 0 0.177 0.143 0.32 0.32 0.32 0.090 0 0.172-0.037 0.23-0.098l2.037-2.037zM9.605 16.32h12.806v-0.64h-12.806v0.64z"></path>
<path stroke-linejoin="miter" stroke-linecap="butt" stroke-miterlimit="4" stroke-width="0.64" d="M31.697 16c0 8.66-7.024 15.68-15.688 15.68s-15.688-7.020-15.688-15.68 7.024-15.68 15.688-15.68c8.665 0 15.688 7.020 15.688 15.68z"></path>
</symbol>
</defs>
</svg>
